<svg width="250" height="250" viewBox="0 0 250 250" xmlns="http://www.w3.org/2000/svg" xml:space="preserve">
    <rect width="100%" height="100%" fill="#FFCC66" />
    <g fill="#000000">
        <path d="m125,57.2031l-67.7969,48.42636l0,82.32481c0,2.90558 1.93705,4.84264 4.84264,4.84264l125.90854,0c2.90558,0 4.84264,-1.93705 4.84264,-4.84264l0,-82.32481l-67.7969,-48.42636l-0.00001,0zm-58.11163,53.269l58.11163,-41.64667l58.11163,41.64667l0,1.93705l-58.11163,41.64667l-58.11163,-41.64667l0,-1.93705zm0,13.55938l33.89845,24.21318l-33.89845,34.86698l0,-59.08016zm13.55938,59.08016l28.08729,-28.08729l16.46496,10.6538l15.49643,-11.62233l29.05581,29.05581l-89.1045,0l0.00001,0zm102.66389,0l-33.89845,-33.89845l33.89845,-25.18171l0,59.08016z"/>
    </g>
</svg>
